# xmcd
#
# Track frame offsets: 
#        150
#        9477
#        20450
#        34875
#        45182
#        53340
#        64092
#        78112
#        86292
#        100342
#        114512
#        124140
#        133157
#        142297
#
# Disc length: 2085 seconds
#
# Revision: 0
# Processed by: cddbd v1.4PL0 Copyright (c) Steve Scherf et al.
# Submitted via: ExactAudioCopy v0.90b3
#
DISCID=ae08230e
DTITLE=The Jordanaires - Wonderful Time
DYEAR=1900
DGENRE=Country
TTITLE0=Joshua Fit De Battle
TTITLE1=Didn't It Rain
TTITLE2=Peace In The Valley
TTITLE3=Search Me Lord
TTITLE4=Dig A Little Deeper
TTITLE5=You Better Run
TTITLE6=Let Us Break Bread Together
TTITLE7=Wonderful Time Up There
TTITLE8=How Great Thou Art
TTITLE9=I'm A Rollin'
TTITLE10=Dip Your Fingers In Some Water
TTITLE11=Roll Jordan Roll
TTITLE12=One Of These Mornings
TTITLE13=Onward Christian Soldiers
EXTD=
EXTT0=
EXTT1=
EXTT2=
EXTT3=
EXTT4=
EXTT5=
EXTT6=
EXTT7=
EXTT8=
EXTT9=
EXTT10=
EXTT11=
EXTT12=
EXTT13=
PLAYORDER=
